<svg width="100" height="80" viewBox="0 0 100 80" fill="none" xmlns="http://www.w3.org/2000/svg">
<path d="M92.5944 32.5381C87.4586 30.1306 80.5902 28.75 73.75 28.75H29.1136C28.3398 27.7258 27.4597 26.8784 26.5011 26.25H58.75C35.8058 21.523 34.2817 5 15.0005 5H15V25H12.5V5C8.35781 5 5 9.47719 5 15V25C1.37547 25 0 26.5675 0 28.75V35C0 37.1848 1.37797 38.75 5 38.75V41.25C1.37547 41.25 0 42.8175 0 45V51.25C0 53.4348 1.37797 55 5 55V65C5 70.5228 8.35781 75 12.5 75V55H15V75H15.0005C34.2817 75 35.8058 58.477 58.75 53.75H26.5009C27.4595 53.1216 28.3397 52.2742 29.1134 51.25H73.75C80.5902 51.25 87.4586 49.8694 92.5944 47.4619C97.2316 45.2883 100 42.4987 100 40C100 37.5013 97.2316 34.7117 92.5944 32.5381ZM76.25 46.25C75.9185 46.25 75.6005 46.1183 75.3661 45.8839C75.1317 45.6495 75 45.3315 75 45V35C75 34.6685 75.1317 34.3505 75.3661 34.1161C75.6005 33.8817 75.9185 33.75 76.25 33.75C81.2358 33.75 81.2409 46.25 76.25 46.25Z" fill="#5C48D3"/>
</svg>
